HIERARCHY
ROOT Hips
{
  OFFSET 5.80788e-005 67.184 3.4734
  CHANNELS 6 Xposition Yposition Zposition Zrotation Xrotation Yrotation
  JOINT Chest
  {
    OFFSET 0 8.7983 -4.7612
    CHANNELS 6 Xposition Yposition Zposition Zrotation Xrotation Yrotation
    JOINT Chest2
    {
      OFFSET 0 8.0291 0.4195
      CHANNELS 6 Xposition Yposition Zposition Zrotation Xrotation Yrotation
      JOINT Chest3
      {
        OFFSET 0 9.9351 -2.2114
        CHANNELS 6 Xposition Yposition Zposition Zrotation Xrotation Yrotation
        JOINT Neck
        {
          OFFSET 0 22.3885 -0.4656
          CHANNELS 6 Xposition Yposition Zposition Zrotation Xrotation Yrotation
          JOINT Head
          {
            OFFSET -0.0001 12.643 3.4389
            CHANNELS 6 Xposition Yposition Zposition Zrotation Xrotation Yrotation
            End Site
            {
              OFFSET 0.0001 17.6655 0.5274
            }
          }
        }
        JOINT LeftCollar
        {
          OFFSET 2.2603 21.606 7.4023
          CHANNELS 6 Xposition Yposition Zposition Zrotation Xrotation Yrotation
          JOINT LeftShoulder
          {
            OFFSET 13.5163 -1.1332 -5.0146
            CHANNELS 6 Xposition Yposition Zposition Zrotation Xrotation Yrotation
            JOINT LeftElbow
            {
              OFFSET -0.0995 -28.05 -0.2431
              CHANNELS 6 Xposition Yposition Zposition Zrotation Xrotation Yrotation
              JOINT LeftWrist
              {
                OFFSET 0.0679 -23.3996 -0.1402
                CHANNELS 6 Xposition Yposition Zposition Zrotation Xrotation Yrotation
                JOINT LeftFinger1
                {
                  OFFSET 0.7932 -9.069 2.5189
                  CHANNELS 6 Xposition Yposition Zposition Zrotation Xrotation Yrotation
                  JOINT LeftFinger11
                  {
                    OFFSET -0.8272 -3.3923 0.5977
                    CHANNELS 6 Xposition Yposition Zposition Zrotation Xrotation Yrotation
                    JOINT LeftFinger12
                    {
                      OFFSET -0.5649 -2.3158 0.4082
                      CHANNELS 6 Xposition Yposition Zposition Zrotation Xrotation Yrotation
                      End Site
                      {
                        OFFSET -0.4919 -1.6479 0.2673
                      }
                    }
                  }
                }
                JOINT LeftFinger2
                {
                  OFFSET 0.9159 -9.2044 0.2193
                  CHANNELS 6 Xposition Yposition Zposition Zrotation Xrotation Yrotation
                  JOINT LeftFinger21
                  {
                    OFFSET 0.0117 -4.1944 -0.0248
                    CHANNELS 6 Xposition Yposition Zposition Zrotation Xrotation Yrotation
                    JOINT LeftFinger22
                    {
                      OFFSET 0.0071 -2.3249 -0.0142
                      CHANNELS 6 Xposition Yposition Zposition Zrotation Xrotation Yrotation
                      End Site
                      {
                        OFFSET -0.1475 -2.0882 0.0028
                      }
                    }
                  }
                }
                JOINT LeftFinger3
                {
                  OFFSET 0.6113 -8.7231 -2.0637
                  CHANNELS 6 Xposition Yposition Zposition Zrotation Xrotation Yrotation
                  JOINT LeftFinger31
                  {
                    OFFSET -0.1927 -3.8059 -0.2383
                    CHANNELS 6 Xposition Yposition Zposition Zrotation Xrotation Yrotation
                    JOINT LeftFinger32
                    {
                      OFFSET -0.1091 -2.1688 -0.1362
                      CHANNELS 6 Xposition Yposition Zposition Zrotation Xrotation Yrotation
                      End Site
                      {
                        OFFSET -0.2358 -1.9176 -0.0906
                      }
                    }
                  }
                }
                JOINT LeftFinger4
                {
                  OFFSET -0.6151 -8.0947 -3.5641
                  CHANNELS 6 Xposition Yposition Zposition Zrotation Xrotation Yrotation
                  JOINT LeftFinger41
                  {
                    OFFSET -0.4882 -2.341 -0.6462
                    CHANNELS 6 Xposition Yposition Zposition Zrotation Xrotation Yrotation
                    JOINT LeftFinger42
                    {
                      OFFSET -0.3575 -1.7167 -0.4742
                      CHANNELS 6 Xposition Yposition Zposition Zrotation Xrotation Yrotation
                      End Site
                      {
                        OFFSET -0.4187 -1.5237 -0.3496
                      }
                    }
                  }
                }
                JOINT LeftFinger0
                {
                  OFFSET -1.42 -1.8761 1.4223
                  CHANNELS 6 Xposition Yposition Zposition Zrotation Xrotation Yrotation
                  JOINT LeftFinger01
                  {
                    OFFSET -1.1471 -3.4929 2.6334
                    CHANNELS 6 Xposition Yposition Zposition Zrotation Xrotation Yrotation
                    JOINT LeftFinger02
                    {
                      OFFSET -0.823 -2.3 1.6571
                      CHANNELS 6 Xposition Yposition Zposition Zrotation Xrotation Yrotation
                      End Site
                      {
                        OFFSET -0.5822 -1.6914 1.1582
                      }
                    }
                  }
                }
              }
            }
          }
        }
        JOINT RightCollar
        {
          OFFSET -2.2603 21.606 7.4023
          CHANNELS 6 Xposition Yposition Zposition Zrotation Xrotation Yrotation
          JOINT RightShoulder
          {
            OFFSET -13.5187 -1.1334 -5.0155
            CHANNELS 6 Xposition Yposition Zposition Zrotation Xrotation Yrotation
            JOINT RightElbow
            {
              OFFSET 0.0994 -28.0499 -0.2431
              CHANNELS 6 Xposition Yposition Zposition Zrotation Xrotation Yrotation
              JOINT RightWrist
              {
                OFFSET -0.0679 -23.3996 -0.1402
                CHANNELS 6 Xposition Yposition Zposition Zrotation Xrotation Yrotation
                JOINT RightFinger1
                {
                  OFFSET -0.7932 -9.0691 2.5189
                  CHANNELS 6 Xposition Yposition Zposition Zrotation Xrotation Yrotation
                  JOINT RightFinger11
                  {
                    OFFSET 0.8272 -3.3923 0.5977
                    CHANNELS 6 Xposition Yposition Zposition Zrotation Xrotation Yrotation
                    JOINT RightFinger12
                    {
                      OFFSET 0.565 -2.3158 0.4082
                      CHANNELS 6 Xposition Yposition Zposition Zrotation Xrotation Yrotation
                      End Site
                      {
                        OFFSET 0.4919 -1.6479 0.2673
                      }
                    }
                  }
                }
                JOINT RightFinger2
                {
                  OFFSET -0.916 -9.2044 0.2193
                  CHANNELS 6 Xposition Yposition Zposition Zrotation Xrotation Yrotation
                  JOINT RightFinger21
                  {
                    OFFSET -0.0117 -4.1944 -0.0248
                    CHANNELS 6 Xposition Yposition Zposition Zrotation Xrotation Yrotation
                    JOINT RightFinger22
                    {
                      OFFSET -0.0071 -2.3249 -0.0142
                      CHANNELS 6 Xposition Yposition Zposition Zrotation Xrotation Yrotation
                      End Site
                      {
                        OFFSET 0.1475 -2.0882 0.0028
                      }
                    }
                  }
                }
                JOINT RightFinger3
                {
                  OFFSET -0.6113 -8.7231 -2.0637
                  CHANNELS 6 Xposition Yposition Zposition Zrotation Xrotation Yrotation
                  JOINT RightFinger31
                  {
                    OFFSET 0.1927 -3.8059 -0.2383
                    CHANNELS 6 Xposition Yposition Zposition Zrotation Xrotation Yrotation
                    JOINT RightFinger32
                    {
                      OFFSET 0.1091 -2.1688 -0.1362
                      CHANNELS 6 Xposition Yposition Zposition Zrotation Xrotation Yrotation
                      End Site
                      {
                        OFFSET 0.2358 -1.9176 -0.0906
                      }
                    }
                  }
                }
                JOINT RightFinger4
                {
                  OFFSET 0.6151 -8.0947 -3.564
                  CHANNELS 6 Xposition Yposition Zposition Zrotation Xrotation Yrotation
                  JOINT RightFinger41
                  {
                    OFFSET 0.4882 -2.341 -0.6462
                    CHANNELS 6 Xposition Yposition Zposition Zrotation Xrotation Yrotation
                    JOINT RightFinger42
                    {
                      OFFSET 0.3574 -1.7166 -0.4742
                      CHANNELS 6 Xposition Yposition Zposition Zrotation Xrotation Yrotation
                      End Site
                      {
                        OFFSET 0.4187 -1.5237 -0.3496
                      }
                    }
                  }
                }
                JOINT RightFinger0
                {
                  OFFSET 1.4199 -1.8761 1.4221
                  CHANNELS 6 Xposition Yposition Zposition Zrotation Xrotation Yrotation
                  JOINT RightFinger01
                  {
                    OFFSET 1.1472 -3.4929 2.6336
                    CHANNELS 6 Xposition Yposition Zposition Zrotation Xrotation Yrotation
                    JOINT RightFinger02
                    {
                      OFFSET 0.8229 -2.3 1.6571
                      CHANNELS 6 Xposition Yposition Zposition Zrotation Xrotation Yrotation
                      End Site
                      {
                        OFFSET 0.5822 -1.6914 1.1582
                      }
                    }
                  }
                }
              }
            }
          }
        }
      }
    }
  }
  JOINT RightHip
  {
    OFFSET -9.412 3.9771 -0.7758
    CHANNELS 6 Xposition Yposition Zposition Zrotation Xrotation Yrotation
    JOINT RightKnee
    {
      OFFSET -0.7531 -40.938 0
      CHANNELS 6 Xposition Yposition Zposition Zrotation Xrotation Yrotation
      JOINT RightAnkle
      {
        OFFSET 0 -40.1986 0
        CHANNELS 6 Xposition Yposition Zposition Zrotation Xrotation Yrotation
        JOINT RightToe
        {
          OFFSET 0 -4.4182 9.239
          CHANNELS 6 Xposition Yposition Zposition Zrotation Xrotation Yrotation
          End Site
          {
            OFFSET 0 0 6.1981
          }
        }
      }
    }
  }
  JOINT LeftHip
  {
    OFFSET 9.4119 3.9773 -0.7758
    CHANNELS 6 Xposition Yposition Zposition Zrotation Xrotation Yrotation
    JOINT LeftKnee
    {
      OFFSET 0.7532 -40.9383 0
      CHANNELS 6 Xposition Yposition Zposition Zrotation Xrotation Yrotation
      JOINT LeftAnkle
      {
        OFFSET 0 -40.1986 0
        CHANNELS 6 Xposition Yposition Zposition Zrotation Xrotation Yrotation
        JOINT LeftToe
        {
          OFFSET 0 -4.4182 9.239
          CHANNELS 6 Xposition Yposition Zposition Zrotation Xrotation Yrotation
          End Site
          {
            OFFSET 0 0 6.1981
          }
        }
      }
    }
  }
}
MOTION
Frames:	4
Frame Time:	0.0333333
5.80788e-005 67.184 3.4734 0 0 -0 0 8.7983 -4.7612 0 0 -0 0 8.0291 0.4195 0 0 -0 0 9.9351 -2.2114 0 0 -0 0 22.3885 -0.4656 0 0 -0 -0.0001 12.643 3.4389 0 0 -0 2.2603 21.606 7.4023 0 0 -12.5014 13.5163 -1.1332 -5.0146 88.1196 14.2451 10.6914 -0.0995 -28.05 -0.2431 -0.00160068 -0.00239207 0.000740045 0.0679 -23.3996 -0.1402 -8.4365e-005 7.00714e-005 -9.52055e-007 0.7932 -9.069 2.5189 9.93923e-017 -1.98785e-016 -1.59028e-015 -0.8272 -3.3923 0.5977 9.93923e-017 -5.96354e-016 -1.59028e-015 -0.5649 -2.3158 0.4082 -9.93923e-017 -5.96354e-016 -1.59028e-015 0.9159 -9.2044 0.2193 9.93923e-017 -1.98785e-016 -1.59028e-015 0.0117 -4.1944 -0.0248 -0.0128176 0.00232552 8.52707e-005 0.0071 -2.3249 -0.0142 9.93923e-017 5.96354e-016 -0 0.6113 -8.7231 -2.0637 9.93923e-017 -1.98785e-016 -1.59028e-015 -0.1927 -3.8059 -0.2383 -0.0160551 0.00299681 0.000857156 -0.1091 -2.1688 -0.1362 -2.48481e-016 0 3.18055e-015 -0.6151 -8.0947 -3.5641 9.93923e-017 -1.98785e-016 -1.59028e-015 -0.4882 -2.341 -0.6462 -0.0125865 0.0031206 0.00282719 -0.3575 -1.7167 -0.4742 0 1.98785e-016 -0 -1.42 -1.8761 1.4223 9.93923e-017 -1.98785e-016 -1.59028e-015 -1.1471 -3.4929 2.6334 9.93923e-017 -5.96354e-016 -1.59028e-015 -0.823 -2.3 1.6571 -9.93923e-017 -5.96354e-016 -1.59028e-015 -2.2603 21.606 7.4023 -0.865644 0.16582 7.03859 -13.5187 -1.1334 -5.0155 -88.0329 10.2057 -10.5567 0.0994 -28.0499 -0.2431 0.0015593 -0.00248883 -0.000788628 -0.0679 -23.3996 -0.1402 7.87605e-005 4.10553e-005 1.24965e-005 -0.7932 -9.0691 2.5189 -3.97569e-016 -7.95139e-016 3.18055e-015 0.8272 -3.3923 0.5977 -1.98785e-016 -3.97569e-016 3.18055e-015 0.565 -2.3158 0.4082 -1.98785e-016 0 3.18055e-015 -0.916 -9.2044 0.2193 -3.97569e-016 -7.95139e-016 3.18055e-015 -0.0117 -4.1944 -0.0248 0.0129473 0.00231697 -8.70038e-005 -0.0071 -2.3249 -0.0142 9.93923e-017 -7.95139e-016 1.59028e-015 -0.6113 -8.7231 -2.0637 -3.97569e-016 -7.95139e-016 3.18055e-015 0.1927 -3.8059 -0.2383 0.0163314 0.00303369 -0.000872333 0.1091 -2.1688 -0.1362 3.97569e-016 7.95139e-016 -3.18055e-015 0.6151 -8.0947 -3.564 -3.97569e-016 -7.95139e-016 3.18055e-015 0.4882 -2.341 -0.6462 0.0145763 0.00367772 -0.00326275 0.3574 -1.7166 -0.4742 9.93923e-017 -3.97569e-016 -0 1.4199 -1.8761 1.4221 -3.97569e-016 -7.95139e-016 3.18055e-015 1.1472 -3.4929 2.6336 -1.98785e-016 -3.97569e-016 3.18055e-015 0.8229 -2.3 1.6571 -1.98785e-016 0 3.18055e-015 -9.412 3.9771 -0.7758 3.42485 1.36937 -0.0640303 -0.7531 -40.938 0 0.000136572 0.69354 0.00145564 1.77636e-015 -40.1986 -1.11022e-016 -3.42573 -2.06297 -0.0607933 8.88178e-016 -4.4182 9.239 -3.19502e-024 0 -1.48106e-024 9.4119 3.9773 -0.7758 -3.42498 1.36123 0.0639712 0.7532 -40.9383 2.22045e-016 -6.769e-005 0.712612 -0.0012277 8.88179e-016 -40.1986 0 3.42582 -2.07388 0.0612819 -8.88178e-016 -4.4182 9.239 2.55305e-023 0 -2.31416e-026 
-1.54324 33.4697 13.2701 58.3722 36.7817 6.96815 0 8.7983 -4.7612 -2.94197 3.73662 -1.26931 3.55271e-015 8.0291 0.4195 -5.81898 7.53278 -2.35192 0 9.9351 -2.2114 -5.819 7.53281 -2.35191 -1.77636e-015 22.3885 -0.4656 -13.2461 -0.323613 3.69693 -0.0001 12.643 3.4389 -0.644728 -0.922316 14.2258 2.2603 21.606 7.4023 -10.446 6.27853 -18.4629 13.5163 -1.1332 -5.0146 64.3383 9.0347 53.151 -0.0995 -28.05 -0.2431 -62.2454 -2.24902 -3.58083 0.0679 -23.3996 -0.1402 -2.31646 7.87093 27.031 0.7932 -9.06901 2.5189 -0 0 3.18055e-015 -0.8272 -3.3923 0.5977 -6.8603e-006 6.84921e-007 1.60892e-006 -0.5649 -2.3158 0.4082 -3.18055e-015 3.18055e-015 -0 0.9159 -9.20441 0.2193 -0 0 3.18055e-015 0.0117 -4.1944 -0.0248 -0.0128137 0.00232255 9.7629e-005 0.0071 -2.3249 -0.0142 5.31285e-006 -1.49057e-006 -2.2531e-006 0.6113 -8.7231 -2.0637 -0 0 3.18055e-015 -0.1927 -3.8059 -0.2383 -0.0160459 0.00299796 0.000867479 -0.1091 -2.1688 -0.1362 -0 0 6.36111e-015 -0.6151 -8.0947 -3.5641 -0 0 3.18055e-015 -0.4882 -2.341 -0.6462 -0.01258 0.00312062 0.00284256 -0.3575 -1.7167 -0.4742 -1.52876e-005 1.08561e-006 -2.56517e-005 -1.42 -1.8761 1.4223 -0 0 3.18055e-015 -1.1471 -3.4929 2.6334 -6.8603e-006 6.84921e-007 1.60892e-006 -0.823 -2.3 1.6571 -3.18055e-015 3.18055e-015 -0 -2.2603 21.606 7.4023 -1.78252 0.631029 13.582 -13.5187 -1.1334 -5.0155 -85.0623 3.58466 4.76853 0.0994 -28.0499 -0.2431 -7.48625 -9.17681 -4.72949 -0.0679 -23.3996 -0.1402 -2.92806 -11.064 4.93273 -0.7932 -9.0691 2.5189 1.90833e-014 -3.18055e-015 3.18055e-015 0.8272 -3.3923 0.5977 1.59028e-014 -1.59028e-015 -6.36111e-015 0.565 -2.3158 0.4082 9.54166e-015 -1.59028e-015 -4.77083e-015 -0.916 -9.2044 0.2193 1.90833e-014 -3.18055e-015 3.18055e-015 -0.0117 -4.1944 -0.0248 0.0129022 0.00230089 -8.76297e-005 -0.0071 -2.3249 -0.0142 -6.36111e-015 -3.18055e-015 1.59028e-015 -0.6113 -8.7231 -2.0637 1.90833e-014 -3.18055e-015 3.18055e-015 0.1927 -3.8059 -0.2383 0.0162903 0.00302764 -0.000900847 0.1091 -2.1688 -0.1362 3.18055e-015 -1.59028e-015 -3.18055e-015 0.6151 -8.0947 -3.564 1.90833e-014 -3.18055e-015 3.18055e-015 0.4882 -2.341 -0.6462 0.0146135 0.00367983 -0.00327709 0.3574 -1.7166 -0.4742 -4.41391e-032 -1.59028e-015 -1.59028e-015 1.4199 -1.8761 1.4221 1.90833e-014 -3.18055e-015 3.18055e-015 1.1472 -3.4929 2.6336 1.59028e-014 -1.59028e-015 -6.36111e-015 0.8229 -2.3 1.6571 9.54166e-015 -1.59028e-015 -4.77083e-015 -9.412 3.9771 -0.7758 -4.05265 -16.8039 -14.6383 -0.7531 -40.938 0 -0.57094 31.9148 0.000725446 -3.55271e-015 -40.1986 -1.77636e-015 1.74685 4.76839 0.512037 -1.77636e-015 -4.4182 9.239 -8.66696e-006 -7.31849e-007 -2.0095e-006 9.4119 3.9773 -0.7758 19.1776 -38.7573 46.6878 0.7532 -40.9383 7.10543e-015 6.28485 47.4962 -6.80795 3.55271e-015 -40.1986 0 8.95946 11.1584 -16.9975 -7.10543e-015 -4.4182 9.239 -1.16908e-005 -1.03143e-005 -9.19219e-006 
-11.3246 6.27605 22.4049 91.6451 67.2348 28.1142 -8.88178e-016 8.7983 -4.7612 -5.57942 6.84337 -2.58111 8.88178e-016 8.0291 0.4195 -10.9627 13.9013 -4.52433 -1.77636e-015 9.9351 -2.2114 -10.9627 13.9013 -4.52433 -7.10543e-015 22.3885 -0.4656 -24.924 -0.62646 6.9559 -0.0001 12.643 3.4389 -0.847631 -1.62011 26.8118 2.2603 21.606 7.4023 -18.5897 11.6725 -23.9077 13.5163 -1.1332 -5.0146 44.9722 2.91555 89.7826 -0.0995 -28.05 -0.2431 -114.981 -11.3185 -0.711591 0.0679 -23.3996 -0.1402 -3.96195 14.6301 50.8309 0.7932 -9.06901 2.5189 1.59028e-015 -2.97889e-006 -3.18055e-015 -0.8272 -3.3923 0.5977 -3.18055e-015 -3.18055e-015 -0 -0.5649 -2.3158 0.4082 -1.19857e-006 1.35462e-006 1.38727e-006 0.9159 -9.20441 0.2193 1.59028e-015 -2.97889e-006 -3.18055e-015 0.0117 -4.1944 -0.0248 -0.0127841 0.00232557 8.54589e-005 0.0071 -2.3249 -0.0142 -7.87608e-006 -8.5833e-006 -7.43479e-007 0.6113 -8.7231 -2.0637 1.59028e-015 -2.97889e-006 -3.18055e-015 -0.1927 -3.8059 -0.2383 -0.0160758 0.00299866 0.000863221 -0.1091 -2.1688 -0.1362 2.90306e-006 -3.97793e-006 -9.36692e-006 -0.6151 -8.0947 -3.5641 1.59028e-015 -2.97889e-006 -3.18055e-015 -0.4882 -2.341 -0.6462 -0.0125871 0.00311912 0.00282673 -0.3575 -1.7167 -0.4742 9.7267e-007 -2.44864e-006 -1.23893e-006 -1.42 -1.8761 1.4223 1.59028e-015 -2.97889e-006 -3.18055e-015 -1.1471 -3.4929 2.6334 -3.18055e-015 -3.18055e-015 -0 -0.823 -2.3 1.6571 -1.19857e-006 1.35462e-006 1.38727e-006 -2.2603 21.606 7.4023 -2.68839 1.02617 19.353 -13.5187 -1.1334 -5.0155 -82.5298 -2.49061 18.1402 0.0994 -28.0499 -0.2431 -14.2347 -17.2335 -8.86342 -0.0679 -23.3996 -0.1402 -5.50245 -20.8524 9.4749 -0.7932 -9.0691 2.5189 2.55464e-006 3.00072e-006 5.33988e-006 0.8272 -3.3923 0.5977 -2.38542e-015 4.77083e-015 -0 0.565 -2.3158 0.4082 -3.18055e-015 1.59028e-015 -0 -0.916 -9.2044 0.2193 2.55464e-006 3.00072e-006 5.33988e-006 -0.0117 -4.1944 -0.0248 0.0129596 0.0023147 -9.12075e-005 -0.0071 -2.3249 -0.0142 -7.95139e-016 -3.18055e-015 -0 -0.6113 -8.7231 -2.0637 2.55464e-006 3.00072e-006 5.33988e-006 0.1927 -3.8059 -0.2383 0.0163073 0.00302657 -0.000870657 0.1091 -2.1688 -0.1362 1.59028e-015 -3.18055e-015 6.36111e-015 0.6151 -8.0947 -3.564 2.55464e-006 3.00072e-006 5.33988e-006 0.4882 -2.341 -0.6462 0.0145413 0.00366413 -0.00325428 0.3574 -1.7166 -0.4742 1.59028e-015 -1.59028e-015 -3.18055e-015 1.4199 -1.8761 1.4221 2.55464e-006 3.00072e-006 5.33988e-006 1.1472 -3.4929 2.6336 -2.38542e-015 4.77083e-015 -0 0.8229 -2.3 1.6571 -3.18055e-015 1.59028e-015 -0 -9.412 3.9771 -0.7758 -18.8941 -30.575 -31.0032 -0.7531 -40.938 0 -2.2887 61.4123 1.01367 4.44089e-016 -40.1986 0 6.03108 9.42629 1.20491 0 -4.4182 9.239 1.21322e-005 -8.76996e-006 -1.1034e-006 9.4119 3.9773 -0.7758 66.6221 -25.4811 91.6662 0.7532 -40.9383 0 56.6435 78.0467 -53.9284 8.88178e-016 -40.1986 -7.10543e-015 23.2081 22.1853 -34.262 -3.55271e-015 -4.4182 9.239 -3.42567e-006 3.8147e-006 1.42799e-006 
-16.0457 -5.34052 26.2005 82.7329 75.1426 56.2015 8.88178e-016 8.7983 -4.7612 -6.53889 7.94747 -3.09642 0 8.0291 0.4195 -12.825 16.1897 -5.32861 -1.77636e-015 9.9351 -2.2114 -12.825 16.1897 -5.32862 -3.55271e-015 22.3885 -0.4656 -29.1703 -0.844175 8.08765 -0.0001 12.643 3.4389 -0.839875 -1.92292 31.399 2.2603 21.606 7.4023 -21.3459 13.607 -25.9758 13.5163 -1.1332 -5.0146 38.3285 0.522745 102.911 -0.0995 -28.05 -0.2431 -133.225 -16.8054 0.384021 0.0679 -23.3996 -0.1402 -4.51747 17.1472 59.4394 0.7932 -9.069 2.5189 7.95139e-015 -3.18055e-015 -0 -0.8272 -3.3923 0.5977 1.79231e-006 -2.29701e-006 2.67675e-006 -0.5649 -2.3158 0.4082 2.22739e-006 -6.65652e-007 -3.28932e-007 0.9159 -9.2044 0.2193 7.95139e-015 -3.18055e-015 -0 0.0117 -4.1944 -0.0248 -0.0127925 0.0023245 9.14322e-005 0.0071 -2.3249 -0.0142 2.6931e-006 -4.32137e-006 -1.01711e-006 0.6113 -8.7231 -2.0637 7.95139e-015 -3.18055e-015 -0 -0.1927 -3.8059 -0.2383 -0.0160497 0.00299109 0.000858282 -0.1091 -2.1688 -0.1362 1.17893e-005 3.75546e-006 1.50743e-006 -0.6151 -8.0947 -3.5641 7.95139e-015 -3.18055e-015 -0 -0.4882 -2.341 -0.6462 -0.0126027 0.00312303 0.00282921 -0.3575 -1.7167 -0.4742 3.18055e-015 0 1.59028e-015 -1.42 -1.8761 1.4223 7.95139e-015 -3.18055e-015 -0 -1.1471 -3.4929 2.6334 1.79231e-006 -2.29701e-006 2.67675e-006 -0.823 -2.3 1.6571 2.22739e-006 -6.65652e-007 -3.28932e-007 -2.2603 21.606 7.4023 -3.03061 1.17595 21.3683 -13.5187 -1.1334 -5.0155 -81.6259 -4.75468 22.9678 0.0994 -28.0499 -0.2431 -16.7269 -20.152 -10.3624 -0.0679 -23.3996 -0.1402 -6.4237 -24.4192 11.1781 -0.7932 -9.0691 2.5189 9.93923e-016 1.59028e-015 1.59028e-015 0.8272 -3.3923 0.5977 9.93923e-016 7.95139e-016 1.59028e-015 0.565 -2.3158 0.4082 1.39149e-015 -7.95139e-016 -1.59028e-015 -0.916 -9.2044 0.2193 9.93923e-016 1.59028e-015 1.59028e-015 -0.0117 -4.1944 -0.0248 0.0129552 0.00231708 -8.59839e-005 -0.0071 -2.3249 -0.0142 -1.59028e-015 0 -0 -0.6113 -8.7231 -2.0637 9.93923e-016 1.59028e-015 1.59028e-015 0.1927 -3.8059 -0.2383 0.0163482 0.00303713 -0.00087313 0.1091 -2.1688 -0.1362 1.19271e-015 0 1.59028e-015 0.6151 -8.0947 -3.564 9.93923e-016 1.59028e-015 1.59028e-015 0.4882 -2.341 -0.6462 0.0146051 0.00368697 -0.00326676 0.3574 -1.7166 -0.4742 -1.98785e-015 0 -1.59028e-015 1.4199 -1.8761 1.4221 9.93923e-016 1.59028e-015 1.59028e-015 1.1472 -3.4929 2.6336 9.93923e-016 7.95139e-016 1.59028e-015 0.8229 -2.3 1.6571 1.39149e-015 -7.95139e-016 -1.59028e-015 -9.412 3.9771 -0.7758 -25.9818 -33.9707 -38.214 -0.7531 -40.938 3.55271e-015 -3.94229 71.2904 2.25555 1.77636e-015 -40.1986 0 7.27656 11.4631 1.50165 0 -4.4182 9.239 -1.19271e-015 -3.18055e-015 4.77083e-015 9.4119 3.9773 -0.7758 78.5185 -13.5349 95.523 0.7532 -40.9383 7.10543e-015 124.291 76.2317 -119.539 -3.55271e-015 -40.1986 0 29.6939 23.7206 -40.7668 0 -4.4182 9.239 -1.41265e-006 -9.59443e-006 9.59027e-007 
